<svg xmlns="http://www.w3.org/2000/svg" xmlns:xlink="http://www.w3.org/1999/xlink" viewBox="0 0 368.64 368"><defs><style>.a{fill:url(#a);}.b{fill:url(#b);}.c{fill:url(#c);}.d{fill:url(#d);}.e{fill:url(#e);}.f{fill:url(#f);}.g{fill:url(#g);}.h{fill:url(#h);}.i{fill:url(#i);}.j{fill:url(#j);}.k{fill:url(#k);}.l{fill:url(#l);}.m{fill:url(#m);}.n{fill:url(#n);}.o{fill:url(#o);}.p{fill:url(#p);}.q{fill:url(#q);}.r{fill:url(#r);}.s{fill:url(#s);}.t{fill:url(#t);}.u{fill:url(#u);}.v{fill:url(#v);}.w{fill:url(#w);}.x{fill:url(#x);}.y{fill:url(#y);}.z{fill:url(#z);}.aa{fill:url(#aa);}.ab{fill:url(#ab);}.ac{fill:url(#ac);}.ad{fill:url(#ad);}.ae{fill:url(#ae);}.af{fill:url(#af);}.ag{fill:url(#ag);}.ah{fill:url(#ah);}.ai{fill:url(#ai);}.aj{fill:url(#aj);}.ak{fill:url(#ak);}.al{fill:url(#al);}.am{fill:url(#am);}.an{fill:url(#an);}.ao{fill:url(#ao);}.ap{fill:url(#ap);}.aq{fill:url(#aq);}.ar{fill:url(#ar);}.as{fill:url(#as);}.at{fill:url(#at);}.au{fill:url(#au);}.av{fill:url(#av);}.aw{fill:url(#aw);}.ax{fill:url(#ax);}.ay{fill:url(#ay);}.az{fill:url(#az);}.ba{fill:url(#ba);}.bb{fill:url(#bb);}.bc{fill:url(#bc);}.bd{fill:url(#bd);}.be{fill:url(#be);}.bf{fill:url(#bf);}.bg{fill:url(#bg);}.bh{fill:url(#bh);}.bi{fill:url(#bi);}.bj{fill:url(#bj);}.bk{fill:url(#bk);}.bl{fill:url(#bl);}.bm{fill:url(#bm);}.bn{fill:url(#bn);}.bo{fill:url(#bo);}</style><linearGradient id="a" x1="176.9" y1="126.06" x2="191.76" y2="111.19" gradientUnits="userSpaceOnUse"><stop offset="0" stop-color="#005a91"/><stop offset="1" stop-color="#084c7f"/></linearGradient><linearGradient id="b" x1="20.44" y1="153.43" x2="95.54" y2="256.8" gradientUnits="userSpaceOnUse"><stop offset="0" stop-color="#0f2d59"/><stop offset="1" stop-color="#163d6e"/></linearGradient><linearGradient id="c" x1="34.02" y1="-48.45" x2="200.16" y2="95.98" gradientUnits="userSpaceOnUse"><stop offset="0" stop-color="#071323"/><stop offset="1" stop-color="#174175"/></linearGradient><linearGradient id="d" x1="271.19" y1="-16.18" x2="485.68" y2="112.69" gradientUnits="userSpaceOnUse"><stop offset="0" stop-color="#070c16"/><stop offset="1" stop-color="#070812"/></linearGradient><linearGradient id="e" x1="77.17" y1="8.35" x2="159.36" y2="109.85" gradientUnits="userSpaceOnUse"><stop offset="0" stop-color="#0a3057"/><stop offset="1" stop-color="#0e426d"/></linearGradient><linearGradient id="f" x1="59.44" y1="-78.83" x2="170.24" y2="98.49" gradientUnits="userSpaceOnUse"><stop offset="0" stop-color="#03284c"/><stop offset="1" stop-color="#005289"/></linearGradient><linearGradient id="g" x1="104.68" y1="31.34" x2="174.8" y2="157.84" gradientUnits="userSpaceOnUse"><stop offset="0" stop-color="#044d80"/><stop offset="1" stop-color="#081e4e"/></linearGradient><linearGradient id="h" x1="131.49" y1="-9.88" x2="198.46" y2="127.44" gradientUnits="userSpaceOnUse"><stop offset="0" stop-color="#005ba1"/><stop offset="1" stop-color="#084c7f"/></linearGradient><linearGradient id="i" x1="262.17" y1="190.95" x2="347.2" y2="288.76" gradientUnits="userSpaceOnUse"><stop offset="0" stop-color="#114271"/><stop offset="1" stop-color="#0f3e68"/></linearGradient><linearGradient id="j" x1="262.5" y1="150.16" x2="365.61" y2="227.86" gradientUnits="userSpaceOnUse"><stop offset="0" stop-color="#0f4573"/><stop offset="1" stop-color="#0e2e58"/></linearGradient><linearGradient id="k" x1="270.79" y1="188.36" x2="392.24" y2="237.43" gradientUnits="userSpaceOnUse"><stop offset="0" stop-color="#0e426d"/><stop offset="1" stop-color="#002348"/></linearGradient><linearGradient id="l" x1="269.67" y1="-7.19" x2="577.92" y2="123.65" gradientUnits="userSpaceOnUse"><stop offset="0" stop-color="#070b15"/><stop offset="1" stop-color="#070812"/></linearGradient><linearGradient id="m" x1="263.86" y1="112.99" x2="316.46" y2="225.79" gradientUnits="userSpaceOnUse"><stop offset="0" stop-color="#005080"/><stop offset="1" stop-color="#094b7b"/></linearGradient><linearGradient id="n" x1="234.91" y1="62.69" x2="287.6" y2="140.81" xlink:href="#a"/><linearGradient id="o" x1="200.98" y1="-4.19" x2="383.74" y2="88.93" gradientUnits="userSpaceOnUse"><stop offset="0" stop-color="#0e325b"/><stop offset="1" stop-color="#164376"/></linearGradient><linearGradient id="p" x1="99.69" y1="-94.28" x2="389.56" y2="93.96" gradientUnits="userSpaceOnUse"><stop offset="0" stop-color="#0a1223"/><stop offset="1" stop-color="#193c71"/></linearGradient><linearGradient id="q" x1="179.55" y1="-79.28" x2="256.79" y2="86.36" gradientUnits="userSpaceOnUse"><stop offset="0" stop-color="#0d406b"/><stop offset="1" stop-color="#1a3d72"/></linearGradient><linearGradient id="r" x1="194.16" y1="-49.03" x2="341.83" y2="154.22" gradientUnits="userSpaceOnUse"><stop offset="0" stop-color="#0079c0"/><stop offset="1" stop-color="#012349"/></linearGradient><linearGradient id="s" x1="-50.71" y1="-71.51" x2="150.31" y2="109.49" gradientUnits="userSpaceOnUse"><stop offset="0" stop-color="#0a1323"/><stop offset="1" stop-color="#051529"/></linearGradient><linearGradient id="t" x1="25.93" y1="3.81" x2="118.62" y2="87.26" gradientUnits="userSpaceOnUse"><stop offset="0" stop-color="#03254a"/><stop offset="1" stop-color="#002649"/></linearGradient><linearGradient id="u" x1="-122.94" y1="-102.5" x2="105.5" y2="200.65" gradientUnits="userSpaceOnUse"><stop offset="0" stop-color="#05152c"/><stop offset="1" stop-color="#090f1a"/></linearGradient><linearGradient id="v" x1="-61.44" y1="-36.91" x2="50.86" y2="83.52" gradientUnits="userSpaceOnUse"><stop offset="0" stop-color="#06162e"/><stop offset="1" stop-color="#153262"/></linearGradient><linearGradient id="w" x1="-56.36" y1="-38.48" x2="123.52" y2="82.84" gradientUnits="userSpaceOnUse"><stop offset="0" stop-color="#0b4c83"/><stop offset="1" stop-color="#070d18"/></linearGradient><linearGradient id="x" x1="299.87" y1="111.62" x2="380.31" y2="181.55" gradientUnits="userSpaceOnUse"><stop offset="0" stop-color="#0c2f58"/><stop offset="1" stop-color="#05152c"/></linearGradient><linearGradient id="y" x1="242.99" y1="56.21" x2="344.24" y2="161.06" gradientUnits="userSpaceOnUse"><stop offset="0" stop-color="#094978"/><stop offset="1" stop-color="#0e325b"/></linearGradient><linearGradient id="z" x1="169.61" y1="5.27" x2="398.99" y2="197.75" gradientUnits="userSpaceOnUse"><stop offset="0" stop-color="#064a78"/><stop offset="1" stop-color="#0e355f"/></linearGradient><linearGradient id="aa" x1="258" y1="-6.11" x2="355.1" y2="113.79" gradientUnits="userSpaceOnUse"><stop offset="0" stop-color="#0f335e"/><stop offset="1" stop-color="#001a35"/></linearGradient><linearGradient id="ab" x1="290.62" y1="99.7" x2="371.02" y2="158.11" gradientUnits="userSpaceOnUse"><stop offset="0" stop-color="#0e325b"/><stop offset="1" stop-color="#031b33"/></linearGradient><linearGradient id="ac" x1="294.19" y1="11.98" x2="409.94" y2="149.92" gradientUnits="userSpaceOnUse"><stop offset="0" stop-color="#09101c"/><stop offset="1" stop-color="#091120"/></linearGradient><linearGradient id="ad" x1="313.04" y1="30.47" x2="413.08" y2="178.79" gradientUnits="userSpaceOnUse"><stop offset="0" stop-color="#081221"/><stop offset="1" stop-color="#091122"/></linearGradient><linearGradient id="ae" x1="133.45" y1="12.06" x2="217.7" y2="192.73" gradientUnits="userSpaceOnUse"><stop offset="0" stop-color="#005081"/><stop offset="1" stop-color="#183065"/></linearGradient><linearGradient id="af" x1="137.42" y1="-11.59" x2="206.63" y2="99.17" gradientUnits="userSpaceOnUse"><stop offset="0" stop-color="#114270"/><stop offset="1" stop-color="#005f99"/></linearGradient><linearGradient id="ag" x1="52.59" y1="-28.2" x2="323.88" y2="262.73" gradientUnits="userSpaceOnUse"><stop offset="0" stop-color="#252563"/><stop offset="1" stop-color="#006ba8"/></linearGradient><linearGradient id="ah" x1="167.73" y1="-52.52" x2="260.87" y2="156.68" gradientUnits="userSpaceOnUse"><stop offset="0" stop-color="#00609f"/><stop offset="1" stop-color="#0070b9"/></linearGradient><linearGradient id="ai" x1="194.58" y1="37.56" x2="270.31" y2="86.74" gradientUnits="userSpaceOnUse"><stop offset="0" stop-color="#0077bc"/><stop offset="1" stop-color="#005285"/></linearGradient><linearGradient id="aj" x1="194.41" y1="63.42" x2="298.26" y2="105.37" gradientUnits="userSpaceOnUse"><stop offset="0" stop-color="#005a8f"/><stop offset="1" stop-color="#005285"/></linearGradient><linearGradient id="ak" x1="-15.38" y1="105.7" x2="79.62" y2="188.27" gradientUnits="userSpaceOnUse"><stop offset="0" stop-color="#051529"/><stop offset="1" stop-color="#03254a"/></linearGradient><linearGradient id="al" x1="-33.92" y1="19.45" x2="66.39" y2="157.51" gradientUnits="userSpaceOnUse"><stop offset="0" stop-color="#061426"/><stop offset="1" stop-color="#001b36"/></linearGradient><linearGradient id="am" x1="7.41" y1="25.04" x2="116.81" y2="155.42" gradientUnits="userSpaceOnUse"><stop offset="0" stop-color="#021a30"/><stop offset="1" stop-color="#0f3963"/></linearGradient><linearGradient id="an" x1="-27.89" y1="103.57" x2="138.26" y2="228.77" gradientUnits="userSpaceOnUse"><stop offset="0" stop-color="#062b50"/><stop offset="1" stop-color="#0e426d"/></linearGradient><linearGradient id="ao" x1="-21.14" y1="123.74" x2="122.82" y2="210.24" gradientUnits="userSpaceOnUse"><stop offset="0" stop-color="#0b2f57"/><stop offset="1" stop-color="#094978"/></linearGradient><linearGradient id="ap" x1="47.72" y1="51.3" x2="122.06" y2="191.1" gradientUnits="userSpaceOnUse"><stop offset="0" stop-color="#103f6b"/><stop offset="1" stop-color="#054c7c"/></linearGradient><linearGradient id="aq" x1="69.31" y1="171.76" x2="143.75" y2="221.97" gradientUnits="userSpaceOnUse"><stop offset="0" stop-color="#00548c"/><stop offset="1" stop-color="#0065a6"/></linearGradient><linearGradient id="ar" x1="69.26" y1="93.54" x2="152.42" y2="182.72" gradientUnits="userSpaceOnUse"><stop offset="0" stop-color="#005385"/><stop offset="1" stop-color="#132a5d"/></linearGradient><linearGradient id="as" x1="91.29" y1="122.02" x2="184.31" y2="208.76" gradientUnits="userSpaceOnUse"><stop offset="0" stop-color="#0074b2"/><stop offset="1" stop-color="#173063"/></linearGradient><linearGradient id="at" x1="34.54" y1="176.39" x2="169.09" y2="361.58" gradientUnits="userSpaceOnUse"><stop offset="0" stop-color="#0f335e"/><stop offset="1" stop-color="#0e325b"/></linearGradient><linearGradient id="au" x1="23.49" y1="174.44" x2="126.55" y2="281.17" gradientUnits="userSpaceOnUse"><stop offset="0" stop-color="#153c6b"/><stop offset="1" stop-color="#094978"/></linearGradient><linearGradient id="av" x1="68.12" y1="183.43" x2="163.02" y2="265.92" gradientUnits="userSpaceOnUse"><stop offset="0" stop-color="#005289"/><stop offset="1" stop-color="#00609f"/></linearGradient><linearGradient id="aw" x1="-26.28" y1="140.99" x2="179.32" y2="346.59" gradientUnits="userSpaceOnUse"><stop offset="0" stop-color="#0b2c56"/><stop offset="1" stop-color="#144579"/></linearGradient><linearGradient id="ax" x1="110.39" y1="278.19" x2="225.05" y2="414.84" gradientUnits="userSpaceOnUse"><stop offset="0" stop-color="#102f5b"/><stop offset="1" stop-color="#0060a3"/></linearGradient><linearGradient id="ay" x1="116.8" y1="135.67" x2="219.49" y2="242" xlink:href="#ai"/><linearGradient id="az" x1="132.21" y1="44.21" x2="280.48" y2="233.99" gradientUnits="userSpaceOnUse"><stop offset="0" stop-color="#262e6d"/><stop offset="1" stop-color="#0d4775"/></linearGradient><linearGradient id="ba" x1="145.98" y1="23.43" x2="316.37" y2="276.05" gradientUnits="userSpaceOnUse"><stop offset="0" stop-color="#0069a6"/><stop offset="1" stop-color="#133d6b"/></linearGradient><linearGradient id="bb" x1="181.53" y1="103.43" x2="302.61" y2="224.5" gradientUnits="userSpaceOnUse"><stop offset="0" stop-color="#005e98"/><stop offset="1" stop-color="#103862"/></linearGradient><linearGradient id="bc" x1="216.7" y1="209.04" x2="324.55" y2="347.08" xlink:href="#ag"/><linearGradient id="bd" x1="189.49" y1="108.31" x2="323.78" y2="350.59" gradientUnits="userSpaceOnUse"><stop offset="0" stop-color="#005080"/><stop offset="1" stop-color="#0064a3"/></linearGradient><linearGradient id="be" x1="135.97" y1="303.75" x2="208.5" y2="350.85" gradientUnits="userSpaceOnUse"><stop offset="0" stop-color="#1b4381"/><stop offset="1" stop-color="#277aab"/></linearGradient><linearGradient id="bf" x1="158.34" y1="263.83" x2="252.5" y2="433.7" gradientUnits="userSpaceOnUse"><stop offset="0" stop-color="#0064a3"/><stop offset="1" stop-color="#1065a7"/></linearGradient><linearGradient id="bg" x1="182.16" y1="282.38" x2="312.11" y2="431.86" gradientUnits="userSpaceOnUse"><stop offset="0" stop-color="#00599b"/><stop offset="1" stop-color="#001a37"/></linearGradient><linearGradient id="bh" x1="151.29" y1="258.23" x2="309.98" y2="349.85" xlink:href="#az"/><linearGradient id="bi" x1="54.64" y1="178.16" x2="293.13" y2="392.9" xlink:href="#av"/><linearGradient id="bj" x1="73.03" y1="201.57" x2="239.89" y2="305.84" xlink:href="#bf"/><linearGradient id="bk" x1="80.67" y1="189.74" x2="237.41" y2="352.05" gradientUnits="userSpaceOnUse"><stop offset="0" stop-color="#006db1"/><stop offset="1" stop-color="#163d6e"/></linearGradient><linearGradient id="bl" x1="139.85" y1="162.18" x2="230.99" y2="250.2" xlink:href="#aq"/><linearGradient id="bm" x1="188.21" y1="235.72" x2="243.46" y2="331.42" xlink:href="#ai"/><linearGradient id="bn" x1="171.52" y1="172.68" x2="330.24" y2="287.99" xlink:href="#ag"/><linearGradient id="bo" x1="141.71" y1="120.15" x2="357.98" y2="344.1" xlink:href="#ag"/></defs><title>Element 1</title><path class="a" d="M184.33,368c22.63-22.63,45.28-45.27,67.16-68.62,20.8-22.19,41.1-45.17,59.36-69.52,29.51-39.35,57.79-87.78,57.79-138.45A91.43,91.43,0,0,0,277.23,0C257,0,239,4.34,223,17.11c-13.67,10.94-23.83,26.5-32.12,41.73l-6.58,12.1-6.58-12.1c-8.28-15.23-18.45-30.79-32.12-41.73C129.66,4.34,111.66,0,91.41,0A91.43,91.43,0,0,0,0,91.41c0,50.67,28.28,99.1,57.79,138.45C76,254.18,96.5,277,117.35,299.12,139.33,322.41,162,345.07,184.33,368Z"/><path class="b" d="M28.19,185.1l45.83,17L59.56,232.21l-1.77-2.35A411.94,411.94,0,0,1,28.19,185.1Z"/><path class="c" d="M114.74,2.37,96.33,25.07,83,.39Q87.15,0,91.41,0A106,106,0,0,1,114.74,2.37Z"/><path class="d" d="M330.12,21l10.59,4.65q-3.25-3.15-6.79-5.94Z"/><polygon class="e" points="96.33 25.07 98.87 89.48 149.08 42.82 96.33 25.07"/><path class="f" d="M96.33,25.07l18.41-22.7a74.57,74.57,0,0,1,30.88,14.74c1.32,1.06,2.6,2.16,3.86,3.29l-.4,22.42Z"/><polygon class="g" points="98.87 89.48 159.22 148.3 149.08 42.82 98.87 89.48"/><path class="h" d="M159.58,31.08l-10.5,11.74.4-22.42A101.16,101.16,0,0,1,159.58,31.08Z"/><path class="i" d="M316.82,221.75l-35.89-18.68,9.54,52.51c7-8.42,13.83-17,20.38-25.72Q313.85,225.87,316.82,221.75Z"/><path class="j" d="M280.93,203.07l20.79-62.37,43.1,36.36c-3.83,7.31-8,14.47-12.33,21.43Z"/><path class="k" d="M280.93,203.07l35.89,18.68c5.38-7.47,10.67-15.24,15.67-23.26Z"/><path class="l" d="M330.12,21l3.8-1.29a90.12,90.12,0,0,0-7.55-5.39Z"/><polygon class="m" points="280.93 203.07 301.72 140.69 268.25 132.07 280.93 203.07"/><polygon class="n" points="230.21 100.13 268.25 132.07 271.29 72.23 230.21 100.13"/><polygon class="o" points="271.29 72.23 330.12 21.02 227.17 27.1 271.29 72.23"/><path class="p" d="M326.37,14.33,330.12,21l-103,6.09L253.81,2.39A106.2,106.2,0,0,1,277.23,0,91.06,91.06,0,0,1,326.37,14.33Z"/><path class="q" d="M219.56,20l7.61,7.06,1.66-14.21q-2.94,1.93-5.81,4.22C221.84,18.06,220.69,19,219.56,20Z"/><path class="r" d="M227.17,27.1,253.81,2.39a74.91,74.91,0,0,0-25,10.5Z"/><path class="s" d="M83,.39,96.33,25.07,25.85,45.86l29-38.24A91.08,91.08,0,0,1,83,.39Z"/><polygon class="t" points="96.33 25.07 98.87 89.48 25.84 45.86 96.33 25.07"/><path class="u" d="M1.47,111.68,25.85,45.86,9.77,50.27A91,91,0,0,0,0,91.41,142.89,142.89,0,0,0,1.47,111.68Z"/><path class="v" d="M17.62,37.46l8.23,8.4L9.77,50.27A91.22,91.22,0,0,1,17.62,37.46Z"/><path class="w" d="M54.84,7.62l-29,38.24-8.23-8.4a93.45,93.45,0,0,1,9.16-10.68A91.54,91.54,0,0,1,54.84,7.62Z"/><path class="x" d="M301.72,140.7l43.1,36.36a232.84,232.84,0,0,0,16.5-39.48Z"/><polygon class="y" points="268.25 132.07 271.29 72.23 326.06 92.52 268.25 132.07"/><polygon class="z" points="268.25 132.07 301.72 140.69 326.06 92.52 268.25 132.07"/><polygon class="aa" points="271.29 72.23 330.12 21.02 326.06 92.52 271.29 72.23"/><path class="ab" d="M301.72,140.7l59.6-3.12c.71-2.31,1.37-4.62,2-7L326.06,92.52Z"/><path class="ac" d="M330.12,21l10.59,4.65,1.15,1.12a91.32,91.32,0,0,1,22.56,37.13L326.06,92.52Z"/><path class="ad" d="M364.42,63.91,326.06,92.52l37.25,38.11a153.47,153.47,0,0,0,5.33-39.22A91.49,91.49,0,0,0,364.42,63.91Z"/><polygon class="ae" points="149.08 42.82 159.22 148.3 199.28 72.23 187.4 65.28 184.32 70.94 178.35 59.98 149.08 42.82"/><path class="af" d="M149.08,42.82l10.5-11.74a175.16,175.16,0,0,1,18.16,27.76l.62,1.13L149.08,42.82Zm48,5.29,2.21,24.12-11.88-7,3.5-6.43C192.85,55.26,194.9,51.66,197.07,48.11Z"/><polygon class="ag" points="159.22 148.3 230.21 100.13 199.28 72.23 159.22 148.3"/><path class="ah" d="M219.56,20l7.61,7.06L199.28,72.23l-2.21-24.12C203.36,37.85,210.68,28,219.56,20Z"/><polygon class="ai" points="227.17 27.1 271.29 72.23 199.28 72.23 227.17 27.1"/><polygon class="aj" points="230.21 100.13 271.29 72.23 199.28 72.23 230.21 100.13"/><path class="ak" d="M25.5,180.22l34.32-48.15-55-3.46C9.3,146.44,16.63,163.75,25.5,180.22Z"/><path class="al" d="M1.47,111.68,25.85,45.86l34,86.21-55-3.46A163.89,163.89,0,0,1,1.47,111.68Z"/><polygon class="am" points="25.84 45.86 98.87 89.48 59.82 132.07 25.84 45.86"/><path class="an" d="M25.5,180.22l34.32-48.15,33,28.4-66.2,21.75Z"/><path class="ao" d="M28.19,185.1l45.83,17,18.77-41.59-66.2,21.75C27.11,183.18,27.65,184.14,28.19,185.1Z"/><polygon class="ap" points="59.82 132.07 98.87 89.48 92.78 160.47 59.82 132.07"/><polygon class="aq" points="74.02 202.06 147.55 209.66 92.78 160.47 74.02 202.06"/><polygon class="ar" points="98.87 89.48 159.22 148.3 92.78 160.47 98.87 89.48"/><polygon class="as" points="147.55 209.66 159.22 148.3 92.78 160.47 147.55 209.66"/><path class="at" d="M99.86,280.25l12.2-15.82-31.83-6.52C86.63,265.47,93.2,272.91,99.86,280.25Z"/><path class="au" d="M59.56,232.21,74,202.06l38,62.37-31.83-6.52Q69.55,245.31,59.56,232.21Z"/><polygon class="av" points="74.02 202.06 147.55 209.66 112.06 264.43 74.02 202.06"/><path class="aw" d="M99.86,280.25l12.2-15.82,12.49,42.27c-2.4-2.52-4.81-5.05-7.2-7.58Q108.55,289.77,99.86,280.25Z"/><path class="ax" d="M187.21,365.13l-20.07-14.69q8.61,8.78,17.19,17.56Z"/><polygon class="ay" points="147.55 209.66 159.22 148.3 207.9 187.86 147.55 209.66"/><polygon class="az" points="159.22 148.3 230.21 100.13 207.9 187.86 159.22 148.3"/><polygon class="ba" points="230.21 100.13 268.25 132.07 207.9 187.86 230.21 100.13"/><polygon class="bb" points="268.25 132.07 280.93 203.07 207.9 187.86 268.25 132.07"/><path class="bc" d="M285,262.06,247,282.18l9.79,11.57C266.35,283.39,275.83,272.84,285,262.06Z"/><path class="bd" d="M280.93,203.07l9.54,52.51q-2.7,3.25-5.46,6.48L247,282.18Z"/><path class="be" d="M167.14,350.44l20.07,14.69,7.58-7.59,10.58-36.82-65.62,1.75Q153.4,336.51,167.14,350.44Z"/><path class="bf" d="M212.37,339.86l-7-19.14-10.58,36.82Q203.6,348.72,212.37,339.86Z"/><path class="bg" d="M233.3,318.48l-27.93,2.24,7,19.14Q222.9,329.23,233.3,318.48Z"/><path class="bh" d="M247,282.18l9.79,11.57c-1.75,1.88-3.49,3.76-5.25,5.63q-9,9.63-18.19,19.1l-27.93,2.24Z"/><path class="bi" d="M112.06,264.43l12.49,42.27q5,5.22,10,10.4l67.77-73Z"/><polygon class="bj" points="112.06 264.43 147.55 209.66 202.32 244.15 112.06 264.43"/><path class="bk" d="M139.75,322.47l65.62-1.75-3.05-76.57-67.77,73Z"/><polygon class="bl" points="147.55 209.66 207.9 187.86 202.32 244.15 147.55 209.66"/><polygon class="bm" points="205.37 320.72 246.95 282.18 202.32 244.15 205.37 320.72"/><polygon class="bn" points="207.9 187.86 280.93 203.07 202.32 244.15 207.9 187.86"/><polygon class="bo" points="246.95 282.18 280.93 203.07 202.32 244.15 246.95 282.18"/></svg>