<?xml version="1.0" standalone="no"?>
<!DOCTYPE svg PUBLIC "-//W3C//DTD SVG 20010904//EN"
 "http://www.w3.org/TR/2001/REC-SVG-20010904/DTD/svg10.dtd">
<svg version="1.0" xmlns="http://www.w3.org/2000/svg"
 width="738.000000pt" height="738.000000pt" viewBox="0 0 738.000000 738.000000"
 preserveAspectRatio="xMidYMid meet">
<metadata>
Created by potrace 1.11, written by Peter Selinger 2001-2013
</metadata>
<g transform="translate(0.000000,738.000000) scale(0.100000,-0.100000)"
fill="#000000" stroke="none">
<path d="M1545 7355 c-671 -109 -1227 -575 -1450 -1215 -70 -201 -87 -307 -92
-565 -6 -292 9 -439 73 -720 180 -780 681 -1654 1516 -2642 377 -446 875 -976
1822 -1938 l275 -280 503 505 c869 872 1374 1425 1840 2010 813 1023 1247
1907 1339 2730 18 166 7 540 -20 665 -142 654 -600 1169 -1225 1379 -194 65
-337 86 -594 86 -321 0 -536 -42 -767 -149 -388 -181 -672 -504 -1021 -1158
-27 -51 -51 -93 -54 -93 -3 0 -25 37 -49 83 -302 564 -532 857 -826 1052 -207
138 -398 210 -667 250 -122 19 -488 18 -603 0z"/>
</g>
</svg>
